<?xml version="1.0" encoding="UTF-8" standalone="no"?>
<!-- Created with Inkscape (http://www.inkscape.org/) -->

<svg
   xmlns:dc="http://purl.org/dc/elements/1.1/"
   xmlns:cc="http://creativecommons.org/ns#"
   xmlns:rdf="http://www.w3.org/1999/02/22-rdf-syntax-ns#"
   xmlns:svg="http://www.w3.org/2000/svg"
   xmlns="http://www.w3.org/2000/svg"
   xmlns:sodipodi="http://sodipodi.sourceforge.net/DTD/sodipodi-0.dtd"
   xmlns:inkscape="http://www.inkscape.org/namespaces/inkscape"
   version="1.1"
   width="1800"
   height="720"
   id="svg2"
   xml:space="preserve"
   inkscape:version="0.91 r13725"
   sodipodi:docname="hIQ_logo.svg"><sodipodi:namedview
     pagecolor="#ffffff"
     bordercolor="#666666"
     borderopacity="1"
     objecttolerance="10"
     gridtolerance="10"
     guidetolerance="10"
     inkscape:pageopacity="0"
     inkscape:pageshadow="2"
     inkscape:window-width="1301"
     inkscape:window-height="744"
     id="namedview46"
     showgrid="false"
     inkscape:zoom="2.010496"
     inkscape:cx="691.49622"
     inkscape:cy="261.30503"
     inkscape:window-x="65"
     inkscape:window-y="24"
     inkscape:window-maximized="1"
     inkscape:current-layer="svg2" /><metadata
     id="metadata8"><rdf:RDF><cc:Work
         rdf:about=""><dc:format>image/svg+xml</dc:format><dc:type
           rdf:resource="http://purl.org/dc/dcmitype/StillImage" /><dc:title></dc:title></cc:Work></rdf:RDF></metadata><defs
     id="defs6"><clipPath
       id="clipPath16"><path
         d="M 0,576 1440,576 1440,0 0,0 0,576 z"
         id="path18" /></clipPath></defs><g
     transform="matrix(0.48347491,0,0,-0.48071284,350.93945,582.69471)"
     id="g10"><g
       id="g12"><g
         clip-path="url(#clipPath16)"
         id="g14"><g
           transform="translate(621.2007,266.4072)"
           id="g20"><path
             d="m 0,0 c -23.5,-23.5 -61.739,-23.5 -85.24,0 -23.5,23.503 -23.5,61.741 0,85.243 23.501,23.501 61.74,23.501 85.24,0 C 23.503,61.741 23.503,23.503 0,0 Z m 28.556,-10.021 c 25.646,34.629 22.792,83.874 -8.576,115.242 -34.517,34.517 -90.681,34.517 -125.198,0 -34.516,-34.519 -34.516,-90.681 0,-125.199 31.369,-31.368 80.611,-34.222 115.244,-8.574 l 15.986,-15.988 18.527,18.533 -15.983,15.986 z"
             id="path22"
             style="fill:#0ab9c1;fill-opacity:1;stroke:#0ab9c1;stroke-width:2.59287739;stroke-linecap:butt;stroke-linejoin:miter;stroke-miterlimit:10;stroke-dasharray:none;stroke-opacity:1"
             inkscape:connector-curvature="0" /></g><g
           transform="translate(665.48,247.2256)"
           id="g24"><path
             d="m 0,0 -5.26,-5.263 8.59,-8.59 -14.286,-14.285 -8.589,8.59 -4.295,-4.297 44.898,-44.896 23.841,23.845 L 0,0 Z"
             id="path26"
             style="fill:#0ab9c1;fill-opacity:1;stroke:#0ab9c1;stroke-width:2.59287739;stroke-linecap:butt;stroke-linejoin:miter;stroke-miterlimit:10;stroke-dasharray:none;stroke-opacity:1"
             inkscape:connector-curvature="0" /></g><g
           transform="translate(481.7324,279.2129)"
           id="g28"><path
             d="m 0,0 c 0,-7.775 -6.235,-14.08 -13.927,-14.08 -7.692,0 -13.928,6.305 -13.928,14.08 l 0,28.16 c 0,7.778 6.236,14.081 13.928,14.081 C -6.235,42.241 0,35.938 0,28.16 L 0,0 Z"
             id="path30"
             style="fill:#0ab9c1;fill-opacity:1;stroke:#0ab9c1;stroke-width:2.59287739;stroke-linecap:butt;stroke-linejoin:miter;stroke-miterlimit:10;stroke-dasharray:none;stroke-opacity:1"
             inkscape:connector-curvature="0" /></g><g
           transform="translate(481.7324,342.8145)"
           id="g32"><path
             d="m 0,0 c 0,-7.691 -6.235,-13.928 -13.927,-13.928 -7.693,0 -13.928,6.237 -13.928,13.928 0,7.692 6.235,13.928 13.928,13.928 C -6.235,13.928 0,7.692 0,0 Z"
             id="path34"
             style="fill:#fac731;fill-opacity:1;stroke:#fac731;stroke-width:2.59287739;stroke-linecap:butt;stroke-linejoin:miter;stroke-miterlimit:10;stroke-dasharray:none;stroke-opacity:1"
             inkscape:connector-curvature="0" /></g><g
           transform="translate(558.4077,329.7896)"
           id="g36"><path
             d="m 0,0 12.899,0 0,-14.608 14.095,0 0,14.608 12.955,0 0,-41.745 -12.955,0 0,16.885 -14.095,0 0,-16.885 L 0,-41.745 0,0 Z"
             id="path38"
             style="fill:#fac731;fill-opacity:1;stroke:#fac731;stroke-width:2.59287739;stroke-linecap:butt;stroke-linejoin:miter;stroke-miterlimit:10;stroke-dasharray:none;stroke-opacity:1"
             inkscape:connector-curvature="0" /></g><g
           transform="translate(710.3794,347.2959)"
           id="g40"><path
             d="M 0,0 0,-76.758"
             id="path42"
             style="fill:none;stroke:#0ab9c1;stroke-width:2.59287739;stroke-linecap:butt;stroke-linejoin:miter;stroke-miterlimit:10;stroke-dasharray:none;stroke-opacity:1"
             inkscape:connector-curvature="0" /></g><g
           transform="translate(748.2988,325.2646)"
           id="g44"><path
             d="m 0,0 0,-8.333 c 0.713,0.822 1.408,1.474 2.088,1.954 0.679,0.481 1.43,0.84 2.253,1.08 0.823,0.24 1.708,0.361 2.654,0.361 1.427,0 2.693,-0.303 3.796,-0.906 1.104,-0.603 1.972,-1.482 2.604,-2.633 0.396,-0.672 0.664,-1.424 0.801,-2.253 0.138,-0.83 0.206,-1.787 0.206,-2.87 l 0,-10.761 c 0,-1.125 -0.257,-1.976 -0.771,-2.553 -0.515,-0.576 -1.197,-0.863 -2.047,-0.863 -1.853,0 -2.778,1.138 -2.778,3.416 l 0,9.485 c 0,1.796 -0.269,3.178 -0.802,4.146 -0.535,0.965 -1.551,1.449 -3.046,1.449 -1.001,0 -1.903,-0.284 -2.706,-0.853 -0.803,-0.569 -1.402,-1.347 -1.8,-2.335 C 0.15,-13.306 0,-14.794 0,-16.934 l 0,-7.427 c 0,-1.112 -0.251,-1.96 -0.752,-2.543 -0.5,-0.581 -1.197,-0.873 -2.088,-0.873 -1.851,0 -2.777,1.138 -2.777,3.416 l 0,24.361 c 0,1.138 0.242,1.992 0.73,2.562 0.487,0.568 1.168,0.853 2.047,0.853 0.891,0 1.588,-0.289 2.088,-0.865 C -0.251,1.975 0,1.124 0,0 Z"
             id="path46"
             style="fill:#0ab9c1;fill-opacity:1;stroke:#0ab9c1;stroke-width:2.59287739;stroke-linecap:butt;stroke-linejoin:miter;stroke-miterlimit:10;stroke-dasharray:none;stroke-opacity:1"
             inkscape:connector-curvature="0" /></g><g
           transform="translate(783.6465,308.9072)"
           id="g48"><path
             d="M 0,0 C 0,2.291 -0.504,4.073 -1.512,5.35 -2.52,6.625 -3.875,7.262 -5.575,7.262 -6.673,7.262 -7.641,6.978 -8.477,6.409 -9.313,5.84 -9.958,4.999 -10.41,3.889 -10.863,2.777 -11.09,1.481 -11.09,0 c 0,-1.469 0.223,-2.751 0.669,-3.848 0.446,-1.098 1.083,-1.938 1.913,-2.52 0.83,-0.584 1.808,-0.875 2.933,-0.875 1.7,0 3.055,0.641 4.063,1.924 C -0.504,-4.037 0,-2.264 0,0 Z m 5.639,0 c 0,-1.674 -0.262,-3.218 -0.783,-4.63 -0.521,-1.413 -1.275,-2.627 -2.262,-3.641 -0.989,-1.016 -2.168,-1.795 -3.539,-2.336 -1.372,-0.542 -2.916,-0.813 -4.63,-0.813 -1.701,0 -3.231,0.274 -4.589,0.823 -1.357,0.548 -2.533,1.334 -3.528,2.355 -0.996,1.022 -1.749,2.23 -2.263,3.622 -0.516,1.392 -0.772,2.933 -0.772,4.62 0,1.7 0.26,3.257 0.782,4.67 0.521,1.413 1.268,2.621 2.242,3.621 0.974,1.001 2.154,1.773 3.539,2.315 1.386,0.542 2.915,0.813 4.589,0.813 1.7,0 3.243,-0.274 4.63,-0.823 C 0.439,10.047 1.626,9.266 2.613,8.25 3.602,7.235 4.353,6.028 4.867,4.629 5.381,3.229 5.639,1.687 5.639,0 Z"
             id="path50"
             style="fill:#0ab9c1;fill-opacity:1;stroke:#0ab9c1;stroke-width:2.59287739;stroke-linecap:butt;stroke-linejoin:miter;stroke-miterlimit:10;stroke-dasharray:none;stroke-opacity:1"
             inkscape:connector-curvature="0" /></g><g
           transform="translate(811.7949,304.8325)"
           id="g52"><path
             d="m 0,0 c 0,-1.55 -0.378,-2.877 -1.133,-3.981 -0.754,-1.104 -1.869,-1.941 -3.344,-2.511 -1.474,-0.569 -3.267,-0.853 -5.379,-0.853 -2.017,0 -3.746,0.308 -5.185,0.926 -1.441,0.617 -2.504,1.388 -3.189,2.314 -0.686,0.927 -1.03,1.855 -1.03,2.788 0,0.617 0.22,1.146 0.658,1.585 0.44,0.439 0.996,0.658 1.667,0.658 0.59,0 1.042,-0.144 1.359,-0.432 0.314,-0.288 0.617,-0.694 0.905,-1.215 0.575,-1 1.265,-1.748 2.067,-2.241 0.803,-0.495 1.897,-0.742 3.283,-0.742 1.124,0 2.047,0.25 2.766,0.751 0.721,0.501 1.081,1.074 1.081,1.719 0,0.987 -0.374,1.707 -1.122,2.16 -0.747,0.452 -1.978,0.885 -3.693,1.296 -1.934,0.481 -3.508,0.985 -4.722,1.512 -1.214,0.528 -2.184,1.225 -2.911,2.089 -0.727,0.864 -1.091,1.927 -1.091,3.189 0,1.125 0.336,2.187 1.009,3.19 0.672,1.001 1.662,1.8 2.973,2.397 1.31,0.596 2.89,0.895 4.742,0.895 1.455,0 2.761,-0.152 3.92,-0.453 1.159,-0.302 2.127,-0.707 2.901,-1.214 0.775,-0.508 1.364,-1.07 1.77,-1.687 0.404,-0.618 0.606,-1.222 0.606,-1.81 0,-0.646 -0.215,-1.173 -0.647,-1.585 -0.433,-0.412 -1.046,-0.618 -1.842,-0.618 -0.575,0 -1.066,0.165 -1.472,0.495 -0.404,0.329 -0.867,0.823 -1.388,1.481 -0.425,0.547 -0.926,0.987 -1.502,1.316 -0.577,0.329 -1.358,0.495 -2.346,0.495 -1.015,0 -1.858,-0.216 -2.53,-0.649 -0.673,-0.432 -1.009,-0.971 -1.009,-1.615 0,-0.59 0.248,-1.074 0.741,-1.451 0.494,-0.377 1.159,-0.689 1.996,-0.936 0.837,-0.247 1.989,-0.549 3.456,-0.905 1.742,-0.425 3.166,-0.934 4.27,-1.523 C -2.261,4.246 -1.424,3.549 -0.854,2.748 -0.285,1.944 0,1.029 0,0 Z"
             id="path54"
             style="fill:#0ab9c1;fill-opacity:1;stroke:#0ab9c1;stroke-width:2.59287739;stroke-linecap:butt;stroke-linejoin:miter;stroke-miterlimit:10;stroke-dasharray:none;stroke-opacity:1"
             inkscape:connector-curvature="0" /></g><g
           transform="translate(832.7402,309.0088)"
           id="g56"><path
             d="m 0,0 c 0,1.482 -0.227,2.755 -0.68,3.817 -0.452,1.064 -1.08,1.88 -1.882,2.449 -0.802,0.569 -1.69,0.854 -2.665,0.854 -1.549,0 -2.856,-0.61 -3.919,-1.831 -1.063,-1.222 -1.594,-3.018 -1.594,-5.391 0,-2.236 0.527,-3.974 1.584,-5.216 1.056,-1.242 2.366,-1.861 3.929,-1.861 0.934,0 1.797,0.269 2.593,0.812 0.796,0.541 1.433,1.355 1.913,2.439 C -0.24,-2.845 0,-1.535 0,0 Z m -11.008,8.169 0,-0.679 c 1.056,1.303 2.154,2.26 3.292,2.871 1.138,0.609 2.428,0.915 3.868,0.915 1.729,0 3.32,-0.445 4.774,-1.338 C 2.379,9.046 3.529,7.744 4.372,6.029 5.216,4.314 5.638,2.285 5.638,-0.061 5.638,-1.789 5.395,-3.377 4.907,-4.824 4.42,-6.272 3.752,-7.486 2.9,-8.466 c -0.849,-0.981 -1.854,-1.736 -3.013,-2.263 -1.159,-0.528 -2.405,-0.792 -3.735,-0.792 -1.605,0 -2.953,0.322 -4.043,0.967 -1.09,0.643 -2.13,1.591 -3.117,2.839 l 0,-8.436 c 0,-2.469 -0.898,-3.703 -2.695,-3.703 -1.057,0 -1.756,0.318 -2.1,0.957 -0.342,0.636 -0.513,1.566 -0.513,2.787 l 0,24.238 c 0,1.07 0.232,1.869 0.699,2.397 0.467,0.528 1.103,0.792 1.914,0.792 0.795,0 1.443,-0.271 1.943,-0.812 0.502,-0.542 0.752,-1.32 0.752,-2.336 z"
             id="path58"
             style="fill:#0ab9c1;fill-opacity:1;stroke:#0ab9c1;stroke-width:2.59287739;stroke-linecap:butt;stroke-linejoin:miter;stroke-miterlimit:10;stroke-dasharray:none;stroke-opacity:1"
             inkscape:connector-curvature="0" /></g><g
           transform="translate(848.501,317.1367)"
           id="g60"><path
             d="m 0,0 0,-16.233 c 0,-1.125 -0.267,-1.976 -0.802,-2.553 -0.535,-0.576 -1.215,-0.863 -2.037,-0.863 -0.823,0 -1.492,0.295 -2.006,0.885 -0.515,0.589 -0.771,1.433 -0.771,2.531 l 0,16.069 c 0,1.11 0.256,1.947 0.771,2.51 0.514,0.562 1.183,0.843 2.006,0.843 0.822,0 1.502,-0.281 2.037,-0.843 C -0.267,1.783 0,1.001 0,0 Z m -2.777,5.802 c -0.783,0 -1.451,0.24 -2.007,0.72 -0.555,0.48 -0.832,1.16 -0.832,2.037 0,0.796 0.283,1.451 0.853,1.966 0.569,0.514 1.231,0.771 1.986,0.771 0.726,0 1.372,-0.233 1.934,-0.699 C -0.281,10.129 0,9.451 0,8.559 0,7.695 -0.274,7.019 -0.823,6.533 -1.372,6.045 -2.023,5.802 -2.777,5.802 Z"
             id="path62"
             style="fill:#0ab9c1;fill-opacity:1;stroke:#0ab9c1;stroke-width:2.59287739;stroke-linecap:butt;stroke-linejoin:miter;stroke-miterlimit:10;stroke-dasharray:none;stroke-opacity:1"
             inkscape:connector-curvature="0" /></g><g
           transform="translate(854.6123,319.832)"
           id="g64"><path
             d="m 0,0 0.617,0 0,3.375 C 0.617,4.28 0.642,4.99 0.688,5.504 0.737,6.018 0.87,6.46 1.091,6.832 1.31,7.215 1.626,7.527 2.036,7.767 2.448,8.008 2.907,8.128 3.415,8.128 4.128,8.128 4.774,7.86 5.351,7.325 5.733,6.969 5.978,6.533 6.081,6.018 6.183,5.504 6.235,4.773 6.235,3.827 L 6.235,0 8.292,0 c 0.795,0 1.402,-0.189 1.82,-0.566 0.418,-0.377 0.629,-0.861 0.629,-1.45 0,-0.755 -0.299,-1.283 -0.896,-1.585 C 9.249,-3.902 8.396,-4.053 7.284,-4.053 l -1.049,0 0,-10.329 c 0,-0.878 0.03,-1.554 0.092,-2.026 0.063,-0.474 0.227,-0.858 0.494,-1.153 0.268,-0.296 0.703,-0.441 1.307,-0.441 0.328,0 0.773,0.056 1.336,0.174 0.562,0.117 1.002,0.174 1.318,0.174 0.451,0 0.86,-0.18 1.225,-0.545 0.363,-0.363 0.545,-0.813 0.545,-1.348 0,-0.905 -0.494,-1.598 -1.483,-2.078 -0.986,-0.48 -2.407,-0.72 -4.257,-0.72 -1.758,0 -3.088,0.295 -3.993,0.886 -0.906,0.588 -1.5,1.405 -1.78,2.447 -0.281,1.043 -0.422,2.435 -0.422,4.178 l 0,10.781 -0.741,0 c -0.809,0 -1.426,0.191 -1.852,0.576 -0.425,0.384 -0.637,0.871 -0.637,1.461 0,0.589 0.222,1.073 0.669,1.45 C -1.499,-0.189 -0.851,0 0,0 Z"
             id="path66"
             style="fill:#0ab9c1;fill-opacity:1;stroke:#0ab9c1;stroke-width:2.59287739;stroke-linecap:butt;stroke-linejoin:miter;stroke-miterlimit:10;stroke-dasharray:none;stroke-opacity:1"
             inkscape:connector-curvature="0" /></g><g
           transform="translate(883.0488,308.7832)"
           id="g68"><path
             d="m 0,0 c -0.824,-0.302 -2.021,-0.621 -3.592,-0.957 -1.57,-0.336 -2.658,-0.583 -3.26,-0.741 -0.605,-0.158 -1.181,-0.466 -1.728,-0.925 -0.549,-0.46 -0.824,-1.101 -0.824,-1.924 0,-0.85 0.322,-1.574 0.966,-2.171 0.645,-0.596 1.489,-0.896 2.532,-0.896 1.111,0 2.136,0.245 3.076,0.731 0.939,0.487 1.629,1.114 2.068,1.883 C -0.254,-4.15 0,-2.75 0,-0.803 L 0,0 Z m 0.369,-8.127 c -1.357,-1.057 -2.672,-1.849 -3.939,-2.377 -1.27,-0.527 -2.694,-0.792 -4.27,-0.792 -1.441,0 -2.705,0.285 -3.797,0.854 -1.09,0.569 -1.929,1.34 -2.519,2.315 -0.59,0.973 -0.885,2.029 -0.885,3.167 0,1.537 0.486,2.848 1.461,3.931 0.972,1.083 2.31,1.811 4.012,2.181 0.355,0.082 1.24,0.268 2.654,0.556 1.412,0.288 2.623,0.552 3.631,0.792 1.008,0.239 2.101,0.531 3.283,0.874 -0.07,1.481 -0.367,2.569 -0.896,3.261 -0.528,0.693 -1.622,1.039 -3.282,1.039 -1.426,0 -2.5,-0.199 -3.221,-0.596 C -8.117,6.68 -8.734,6.083 -9.25,5.288 -9.764,4.491 -10.127,3.968 -10.34,3.714 -10.553,3.46 -11.008,3.333 -11.709,3.333 c -0.631,0 -1.176,0.202 -1.635,0.607 -0.461,0.405 -0.689,0.922 -0.689,1.554 0,0.987 0.349,1.947 1.049,2.88 0.699,0.932 1.791,1.701 3.271,2.304 1.483,0.604 3.326,0.906 5.535,0.906 2.469,0 4.41,-0.292 5.823,-0.875 C 3.059,10.127 4.057,9.204 4.639,7.942 5.223,6.68 5.514,5.006 5.514,2.922 5.514,1.605 5.51,0.487 5.504,-0.432 5.496,-1.352 5.486,-2.373 5.473,-3.499 c 0,-1.055 0.173,-2.156 0.523,-3.301 0.352,-1.146 0.525,-1.883 0.525,-2.212 0,-0.576 -0.271,-1.1 -0.812,-1.573 -0.543,-0.475 -1.156,-0.711 -1.842,-0.711 -0.576,0 -1.144,0.271 -1.707,0.813 C 1.598,-9.942 1,-9.157 0.369,-8.127 Z"
             id="path70"
             style="fill:#0ab9c1;fill-opacity:1;stroke:#0ab9c1;stroke-width:2.59287739;stroke-linecap:butt;stroke-linejoin:miter;stroke-miterlimit:10;stroke-dasharray:none;stroke-opacity:1"
             inkscape:connector-curvature="0" /></g><g
           transform="translate(894.2617,300.9033)"
           id="g72"><path
             d="m 0,0 0,24.361 c 0,1.124 0.25,1.975 0.752,2.551 0.5,0.576 1.176,0.864 2.025,0.864 0.852,0 1.537,-0.284 2.059,-0.853 0.519,-0.569 0.781,-1.424 0.781,-2.562 L 5.617,0 c 0,-1.14 -0.263,-1.993 -0.793,-2.563 -0.527,-0.568 -1.209,-0.853 -2.047,-0.853 -0.822,0 -1.492,0.295 -2.006,0.885 C 0.258,-1.942 0,-1.098 0,0 Z"
             id="path74"
             style="fill:#0ab9c1;fill-opacity:1;stroke:#0ab9c1;stroke-width:2.59287739;stroke-linecap:butt;stroke-linejoin:miter;stroke-miterlimit:10;stroke-dasharray:none;stroke-opacity:1"
             inkscape:connector-curvature="0" /></g><g
           transform="translate(923.7676,304.8325)"
           id="g76"><path
             d="m 0,0 c 0,-1.55 -0.377,-2.877 -1.133,-3.981 -0.754,-1.104 -1.869,-1.941 -3.344,-2.511 -1.475,-0.569 -3.267,-0.853 -5.378,-0.853 -2.018,0 -3.747,0.308 -5.186,0.926 -1.441,0.617 -2.504,1.388 -3.189,2.314 -0.686,0.927 -1.03,1.855 -1.03,2.788 0,0.617 0.221,1.146 0.658,1.585 0.44,0.439 0.997,0.658 1.668,0.658 0.59,0 1.041,-0.144 1.357,-0.432 0.315,-0.288 0.618,-0.694 0.907,-1.215 0.574,-1 1.264,-1.748 2.066,-2.241 0.803,-0.495 1.897,-0.742 3.284,-0.742 1.123,0 2.047,0.25 2.765,0.751 0.721,0.501 1.082,1.074 1.082,1.719 0,0.987 -0.375,1.707 -1.123,2.16 -0.746,0.452 -1.978,0.885 -3.693,1.296 -1.934,0.481 -3.508,0.985 -4.721,1.512 -1.215,0.528 -2.185,1.225 -2.912,2.089 -0.726,0.864 -1.09,1.927 -1.09,3.189 0,1.125 0.336,2.187 1.008,3.19 0.672,1.001 1.662,1.8 2.973,2.397 1.31,0.596 2.89,0.895 4.742,0.895 1.455,0 2.762,-0.152 3.92,-0.453 1.16,-0.302 2.126,-0.707 2.902,-1.214 0.774,-0.508 1.363,-1.07 1.77,-1.687 0.404,-0.618 0.605,-1.222 0.605,-1.81 0,-0.646 -0.215,-1.173 -0.646,-1.585 -0.434,-0.412 -1.047,-0.618 -1.842,-0.618 -0.576,0 -1.066,0.165 -1.473,0.495 -0.404,0.329 -0.867,0.823 -1.388,1.481 -0.424,0.547 -0.927,0.987 -1.502,1.316 -0.577,0.329 -1.358,0.495 -2.346,0.495 -1.014,0 -1.857,-0.216 -2.529,-0.649 -0.675,-0.432 -1.01,-0.971 -1.01,-1.615 0,-0.59 0.248,-1.074 0.742,-1.451 0.494,-0.377 1.158,-0.689 1.996,-0.936 0.836,-0.247 1.988,-0.549 3.455,-0.905 1.742,-0.425 3.166,-0.934 4.27,-1.523 C -2.26,4.246 -1.424,3.549 -0.854,2.748 -0.285,1.944 0,1.029 0,0 Z"
             id="path78"
             style="fill:#0ab9c1;fill-opacity:1;stroke:#0ab9c1;stroke-width:2.59287739;stroke-linecap:butt;stroke-linejoin:miter;stroke-miterlimit:10;stroke-dasharray:none;stroke-opacity:1"
             inkscape:connector-curvature="0" /></g><g
           transform="translate(947.3594,322.939)"
           id="g80"><path
             d="M 0,0 C -0.781,0 -1.451,0.239 -2.006,0.72 -2.563,1.2 -2.84,1.879 -2.84,2.757 c 0,0.796 0.285,1.451 0.854,1.966 0.57,0.514 1.232,0.771 1.986,0.771 0.727,0 1.371,-0.234 1.934,-0.7 C 2.496,4.327 2.777,3.649 2.777,2.757 2.777,1.893 2.504,1.217 1.955,0.73 1.406,0.243 0.754,0 0,0 Z"
             id="path82"
             style="fill:#fac731;fill-opacity:1;stroke:#fac731;stroke-width:2.59287739;stroke-linecap:butt;stroke-linejoin:miter;stroke-miterlimit:10;stroke-dasharray:none;stroke-opacity:1"
             inkscape:connector-curvature="0" /></g><g
           transform="translate(950.1367,317.1367)"
           id="g84"><path
             d="m 0,0 0,-16.233 c 0,-1.125 -0.268,-1.976 -0.803,-2.553 -0.535,-0.576 -1.213,-0.863 -2.037,-0.863 -0.822,0 -1.49,0.295 -2.006,0.885 -0.513,0.589 -0.771,1.433 -0.771,2.531 l 0,16.069 c 0,1.11 0.258,1.947 0.771,2.51 0.516,0.562 1.184,0.843 2.006,0.843 0.824,0 1.502,-0.281 2.037,-0.843 C -0.268,1.783 0,1.001 0,0 Z"
             id="path86"
             style="fill:#0ab9c1;fill-opacity:1;stroke:#0ab9c1;stroke-width:2.59287739;stroke-linecap:butt;stroke-linejoin:miter;stroke-miterlimit:10;stroke-dasharray:none;stroke-opacity:1"
             inkscape:connector-curvature="0" /></g><g
           transform="translate(975.7949,305.0806)"
           id="g88"><path
             d="M 0,0 C 0.85,0.973 1.479,2.125 1.883,3.456 2.287,4.787 2.49,6.33 2.49,8.085 c 0,2.208 -0.357,4.123 -1.07,5.741 -0.713,1.617 -1.732,2.841 -3.057,3.673 -1.322,0.829 -2.842,1.244 -4.556,1.244 -1.221,0 -2.35,-0.23 -3.385,-0.689 -1.035,-0.46 -1.928,-1.129 -2.674,-2.006 -0.748,-0.878 -1.338,-2 -1.769,-3.364 -0.434,-1.366 -0.649,-2.898 -0.649,-4.599 0,-3.47 0.809,-6.142 2.428,-8.015 1.617,-1.871 3.662,-2.808 6.131,-2.808 1.015,0 2.058,0.214 3.127,0.639 -0.645,0.479 -1.45,0.96 -2.416,1.439 -0.967,0.481 -1.629,0.85 -1.987,1.111 -0.357,0.261 -0.535,0.632 -0.535,1.111 0,0.412 0.172,0.775 0.516,1.092 0.342,0.314 0.719,0.472 1.131,0.472 C -5.027,3.126 -2.936,2.084 0,0 Z m 4.795,-3.334 c 0.891,-0.604 1.865,-1.19 2.922,-1.759 1.054,-0.57 1.754,-1.023 2.097,-1.359 0.344,-0.337 0.514,-0.813 0.514,-1.429 0,-0.439 -0.201,-0.879 -0.605,-1.317 -0.407,-0.44 -0.897,-0.659 -1.473,-0.659 -0.465,0 -1.031,0.151 -1.697,0.453 -0.664,0.302 -1.449,0.74 -2.346,1.316 -0.898,0.576 -1.883,1.248 -2.951,2.016 -1.99,-1.013 -4.432,-1.521 -7.326,-1.521 -2.346,0 -4.448,0.374 -6.307,1.12 -1.857,0.748 -3.418,1.825 -4.68,3.232 -1.263,1.406 -2.214,3.075 -2.849,5.01 -0.639,1.934 -0.957,4.039 -0.957,6.316 0,2.317 0.332,4.445 0.998,6.378 0.664,1.935 1.629,3.58 2.89,4.939 1.262,1.358 2.799,2.397 4.61,3.117 1.81,0.72 3.867,1.08 6.172,1.08 3.127,0 5.812,-0.635 8.054,-1.904 2.243,-1.268 3.942,-3.071 5.094,-5.411 1.152,-2.338 1.729,-5.085 1.729,-8.241 0,-4.787 -1.297,-8.579 -3.889,-11.377 z"
             id="path90"
             style="fill:#fac731;fill-opacity:1;stroke:#fac731;stroke-width:2.59287739;stroke-linecap:butt;stroke-linejoin:miter;stroke-miterlimit:10;stroke-dasharray:none;stroke-opacity:1"
             inkscape:connector-curvature="0" /></g></g></g></g><rect
     style="opacity:0.00000001;fill:#ffffff;fill-opacity:1;fill-rule:evenodd;stroke:#fac731;stroke-width:2.70000005;stroke-linejoin:round;stroke-miterlimit:9.39999962;stroke-dasharray:none;stroke-opacity:1"
     id="rect4197"
     width="427.27274"
     height="368.18182"
     x="1040.9091"
     y="145.75757" /><rect
     style="opacity:0;fill:#ffffff;fill-opacity:1;fill-rule:evenodd;stroke:#fac731;stroke-width:2.70000005;stroke-linejoin:round;stroke-miterlimit:9.39999962;stroke-dasharray:none;stroke-opacity:1"
     id="rect4199"
     width="237.87878"
     height="16.666666"
     x="804.54547"
     y="297.27274" /><rect
     style="opacity:0;fill:#ffffff;fill-opacity:1;fill-rule:evenodd;stroke:#fac731;stroke-width:2.70000005;stroke-linejoin:round;stroke-miterlimit:9.39999962;stroke-dasharray:none;stroke-opacity:1"
     id="rect4201"
     width="680.30304"
     height="289.39395"
     x="563.63708"
     y="212.42427" /><rect
     style="opacity:0;fill:#ffffff;fill-opacity:1;fill-rule:evenodd;stroke:#fac731;stroke-width:2.70000005;stroke-linejoin:round;stroke-miterlimit:9.39999962;stroke-dasharray:none;stroke-opacity:1"
     id="rect4222"
     width="521.2121"
     height="327.27274"
     x="568.18182"
     y="221.51515" /><rect
     style="opacity:0;fill:#ffffff;fill-opacity:1;fill-rule:evenodd;stroke:#fac731;stroke-width:2.70000005;stroke-linejoin:round;stroke-miterlimit:9.39999962;stroke-dasharray:none;stroke-opacity:1"
     id="rect4224"
     width="110.60606"
     height="1.5151515"
     x="1089.3939"
     y="429.09091" /><rect
     style="opacity:0;fill:#ffffff;fill-opacity:1;fill-rule:evenodd;stroke:#fac731;stroke-width:2.70000005;stroke-linejoin:round;stroke-miterlimit:9.39999962;stroke-dasharray:none;stroke-opacity:1"
     id="rect4226"
     width="686.36365"
     height="280.30304"
     x="557.57581"
     y="220" /></svg>