<?xml version="1.0" encoding="UTF-8" standalone="no"?>
<svg
   xmlns:dc="http://purl.org/dc/elements/1.1/"
   xmlns:cc="http://creativecommons.org/ns#"
   xmlns:rdf="http://www.w3.org/1999/02/22-rdf-syntax-ns#"
   xmlns:svg="http://www.w3.org/2000/svg"
   xmlns="http://www.w3.org/2000/svg"
   xml:space="preserve"
   id="svg2"
   height="720"
   width="1800"
   version="1.1"><metadata
     id="metadata8"><rdf:RDF><cc:Work
         rdf:about=""><dc:format>image/svg+xml</dc:format><dc:type
           rdf:resource="http://purl.org/dc/dcmitype/StillImage" /><dc:title></dc:title></cc:Work></rdf:RDF></metadata><defs
     id="defs6"><clipPath
       id="clipPath16"><path
         id="path18"
         d="M 0,576 1440,576 1440,0 0,0 0,576 z" /></clipPath></defs><g
     id="g10"
     transform="matrix(0.65275014,0,0,-0.65821662,225.21774,634.01666)"><g
       id="g12"><g
         id="g14"
         clip-path="url(#clipPath16)"><g
           id="g20"
           transform="translate(621.2007,266.4072)" /><g
           id="g24"
           transform="translate(665.48,247.2256)" /><g
           id="g28"
           transform="translate(481.7324,279.2129)" /><g
           id="g32"
           transform="translate(481.7324,342.8145)" /><g
           id="g36"
           transform="translate(558.4077,329.7896)" /><g
           id="g40"
           transform="translate(710.3794,347.2959)" /><g
           id="g44"
           transform="translate(748.2988,325.2646)"><path
             style="fill:#0ab9c1;fill-opacity:1;stroke:#0ab9c1;stroke-width:1.90701461;stroke-linecap:butt;stroke-linejoin:miter;stroke-miterlimit:10;stroke-dasharray:none;stroke-opacity:1"
             id="path46"
             d="m 0,0 0,-8.333 c 0.713,0.822 1.408,1.474 2.088,1.954 0.679,0.481 1.43,0.84 2.253,1.08 0.823,0.24 1.708,0.361 2.654,0.361 1.427,0 2.693,-0.303 3.796,-0.906 1.104,-0.603 1.972,-1.482 2.604,-2.633 0.396,-0.672 0.664,-1.424 0.801,-2.253 0.138,-0.83 0.206,-1.787 0.206,-2.87 l 0,-10.761 c 0,-1.125 -0.257,-1.976 -0.771,-2.553 -0.515,-0.576 -1.197,-0.863 -2.047,-0.863 -1.853,0 -2.778,1.138 -2.778,3.416 l 0,9.485 c 0,1.796 -0.269,3.178 -0.802,4.146 -0.535,0.965 -1.551,1.449 -3.046,1.449 -1.001,0 -1.903,-0.284 -2.706,-0.853 -0.803,-0.569 -1.402,-1.347 -1.8,-2.335 C 0.15,-13.306 0,-14.794 0,-16.934 l 0,-7.427 c 0,-1.112 -0.251,-1.96 -0.752,-2.543 -0.5,-0.581 -1.197,-0.873 -2.088,-0.873 -1.851,0 -2.777,1.138 -2.777,3.416 l 0,24.361 c 0,1.138 0.242,1.992 0.73,2.562 0.487,0.568 1.168,0.853 2.047,0.853 0.891,0 1.588,-0.289 2.088,-0.865 C -0.251,1.975 0,1.124 0,0 Z" /></g><g
           id="g48"
           transform="translate(783.6465,308.9072)"><path
             style="fill:#0ab9c1;fill-opacity:1;stroke:#0ab9c1;stroke-width:1.90701461;stroke-linecap:butt;stroke-linejoin:miter;stroke-miterlimit:10;stroke-dasharray:none;stroke-opacity:1"
             id="path50"
             d="M 0,0 C 0,2.291 -0.504,4.073 -1.512,5.35 -2.52,6.625 -3.875,7.262 -5.575,7.262 -6.673,7.262 -7.641,6.978 -8.477,6.409 -9.313,5.84 -9.958,4.999 -10.41,3.889 -10.863,2.777 -11.09,1.481 -11.09,0 c 0,-1.469 0.223,-2.751 0.669,-3.848 0.446,-1.098 1.083,-1.938 1.913,-2.52 0.83,-0.584 1.808,-0.875 2.933,-0.875 1.7,0 3.055,0.641 4.063,1.924 C -0.504,-4.037 0,-2.264 0,0 Z m 5.639,0 c 0,-1.674 -0.262,-3.218 -0.783,-4.63 -0.521,-1.413 -1.275,-2.627 -2.262,-3.641 -0.989,-1.016 -2.168,-1.795 -3.539,-2.336 -1.372,-0.542 -2.916,-0.813 -4.63,-0.813 -1.701,0 -3.231,0.274 -4.589,0.823 -1.357,0.548 -2.533,1.334 -3.528,2.355 -0.996,1.022 -1.749,2.23 -2.263,3.622 -0.516,1.392 -0.772,2.933 -0.772,4.62 0,1.7 0.26,3.257 0.782,4.67 0.521,1.413 1.268,2.621 2.242,3.621 0.974,1.001 2.154,1.773 3.539,2.315 1.386,0.542 2.915,0.813 4.589,0.813 1.7,0 3.243,-0.274 4.63,-0.823 C 0.439,10.047 1.626,9.266 2.613,8.25 3.602,7.235 4.353,6.028 4.867,4.629 5.381,3.229 5.639,1.687 5.639,0 Z" /></g><g
           id="g52"
           transform="translate(811.7949,304.8325)"><path
             style="fill:#0ab9c1;fill-opacity:1;stroke:#0ab9c1;stroke-width:1.90701461;stroke-linecap:butt;stroke-linejoin:miter;stroke-miterlimit:10;stroke-dasharray:none;stroke-opacity:1"
             id="path54"
             d="m 0,0 c 0,-1.55 -0.378,-2.877 -1.133,-3.981 -0.754,-1.104 -1.869,-1.941 -3.344,-2.511 -1.474,-0.569 -3.267,-0.853 -5.379,-0.853 -2.017,0 -3.746,0.308 -5.185,0.926 -1.441,0.617 -2.504,1.388 -3.189,2.314 -0.686,0.927 -1.03,1.855 -1.03,2.788 0,0.617 0.22,1.146 0.658,1.585 0.44,0.439 0.996,0.658 1.667,0.658 0.59,0 1.042,-0.144 1.359,-0.432 0.314,-0.288 0.617,-0.694 0.905,-1.215 0.575,-1 1.265,-1.748 2.067,-2.241 0.803,-0.495 1.897,-0.742 3.283,-0.742 1.124,0 2.047,0.25 2.766,0.751 0.721,0.501 1.081,1.074 1.081,1.719 0,0.987 -0.374,1.707 -1.122,2.16 -0.747,0.452 -1.978,0.885 -3.693,1.296 -1.934,0.481 -3.508,0.985 -4.722,1.512 -1.214,0.528 -2.184,1.225 -2.911,2.089 -0.727,0.864 -1.091,1.927 -1.091,3.189 0,1.125 0.336,2.187 1.009,3.19 0.672,1.001 1.662,1.8 2.973,2.397 1.31,0.596 2.89,0.895 4.742,0.895 1.455,0 2.761,-0.152 3.92,-0.453 1.159,-0.302 2.127,-0.707 2.901,-1.214 0.775,-0.508 1.364,-1.07 1.77,-1.687 0.404,-0.618 0.606,-1.222 0.606,-1.81 0,-0.646 -0.215,-1.173 -0.647,-1.585 -0.433,-0.412 -1.046,-0.618 -1.842,-0.618 -0.575,0 -1.066,0.165 -1.472,0.495 -0.404,0.329 -0.867,0.823 -1.388,1.481 -0.425,0.547 -0.926,0.987 -1.502,1.316 -0.577,0.329 -1.358,0.495 -2.346,0.495 -1.015,0 -1.858,-0.216 -2.53,-0.649 -0.673,-0.432 -1.009,-0.971 -1.009,-1.615 0,-0.59 0.248,-1.074 0.741,-1.451 0.494,-0.377 1.159,-0.689 1.996,-0.936 0.837,-0.247 1.989,-0.549 3.456,-0.905 1.742,-0.425 3.166,-0.934 4.27,-1.523 C -2.261,4.246 -1.424,3.549 -0.854,2.748 -0.285,1.944 0,1.029 0,0 Z" /></g><g
           id="g56"
           transform="translate(832.7402,309.0088)"><path
             style="fill:#0ab9c1;fill-opacity:1;stroke:#0ab9c1;stroke-width:1.90701461;stroke-linecap:butt;stroke-linejoin:miter;stroke-miterlimit:10;stroke-dasharray:none;stroke-opacity:1"
             id="path58"
             d="m 0,0 c 0,1.482 -0.227,2.755 -0.68,3.817 -0.452,1.064 -1.08,1.88 -1.882,2.449 -0.802,0.569 -1.69,0.854 -2.665,0.854 -1.549,0 -2.856,-0.61 -3.919,-1.831 -1.063,-1.222 -1.594,-3.018 -1.594,-5.391 0,-2.236 0.527,-3.974 1.584,-5.216 1.056,-1.242 2.366,-1.861 3.929,-1.861 0.934,0 1.797,0.269 2.593,0.812 0.796,0.541 1.433,1.355 1.913,2.439 C -0.24,-2.845 0,-1.535 0,0 Z m -11.008,8.169 0,-0.679 c 1.056,1.303 2.154,2.26 3.292,2.871 1.138,0.609 2.428,0.915 3.868,0.915 1.729,0 3.32,-0.445 4.774,-1.338 C 2.379,9.046 3.529,7.744 4.372,6.029 5.216,4.314 5.638,2.285 5.638,-0.061 5.638,-1.789 5.395,-3.377 4.907,-4.824 4.42,-6.272 3.752,-7.486 2.9,-8.466 c -0.849,-0.981 -1.854,-1.736 -3.013,-2.263 -1.159,-0.528 -2.405,-0.792 -3.735,-0.792 -1.605,0 -2.953,0.322 -4.043,0.967 -1.09,0.643 -2.13,1.591 -3.117,2.839 l 0,-8.436 c 0,-2.469 -0.898,-3.703 -2.695,-3.703 -1.057,0 -1.756,0.318 -2.1,0.957 -0.342,0.636 -0.513,1.566 -0.513,2.787 l 0,24.238 c 0,1.07 0.232,1.869 0.699,2.397 0.467,0.528 1.103,0.792 1.914,0.792 0.795,0 1.443,-0.271 1.943,-0.812 0.502,-0.542 0.752,-1.32 0.752,-2.336 z" /></g><g
           id="g60"
           transform="translate(848.501,317.1367)"><path
             style="fill:#0ab9c1;fill-opacity:1;stroke:#0ab9c1;stroke-width:1.90701461;stroke-linecap:butt;stroke-linejoin:miter;stroke-miterlimit:10;stroke-dasharray:none;stroke-opacity:1"
             id="path62"
             d="m 0,0 0,-16.233 c 0,-1.125 -0.267,-1.976 -0.802,-2.553 -0.535,-0.576 -1.215,-0.863 -2.037,-0.863 -0.823,0 -1.492,0.295 -2.006,0.885 -0.515,0.589 -0.771,1.433 -0.771,2.531 l 0,16.069 c 0,1.11 0.256,1.947 0.771,2.51 0.514,0.562 1.183,0.843 2.006,0.843 0.822,0 1.502,-0.281 2.037,-0.843 C -0.267,1.783 0,1.001 0,0 Z m -2.777,5.802 c -0.783,0 -1.451,0.24 -2.007,0.72 -0.555,0.48 -0.832,1.16 -0.832,2.037 0,0.796 0.283,1.451 0.853,1.966 0.569,0.514 1.231,0.771 1.986,0.771 0.726,0 1.372,-0.233 1.934,-0.699 C -0.281,10.129 0,9.451 0,8.559 0,7.695 -0.274,7.019 -0.823,6.533 -1.372,6.045 -2.023,5.802 -2.777,5.802 Z" /></g><g
           id="g64"
           transform="translate(854.6123,319.832)"><path
             style="fill:#0ab9c1;fill-opacity:1;stroke:#0ab9c1;stroke-width:1.90701461;stroke-linecap:butt;stroke-linejoin:miter;stroke-miterlimit:10;stroke-dasharray:none;stroke-opacity:1"
             id="path66"
             d="m 0,0 0.617,0 0,3.375 C 0.617,4.28 0.642,4.99 0.688,5.504 0.737,6.018 0.87,6.46 1.091,6.832 1.31,7.215 1.626,7.527 2.036,7.767 2.448,8.008 2.907,8.128 3.415,8.128 4.128,8.128 4.774,7.86 5.351,7.325 5.733,6.969 5.978,6.533 6.081,6.018 6.183,5.504 6.235,4.773 6.235,3.827 L 6.235,0 8.292,0 c 0.795,0 1.402,-0.189 1.82,-0.566 0.418,-0.377 0.629,-0.861 0.629,-1.45 0,-0.755 -0.299,-1.283 -0.896,-1.585 C 9.249,-3.902 8.396,-4.053 7.284,-4.053 l -1.049,0 0,-10.329 c 0,-0.878 0.03,-1.554 0.092,-2.026 0.063,-0.474 0.227,-0.858 0.494,-1.153 0.268,-0.296 0.703,-0.441 1.307,-0.441 0.328,0 0.773,0.056 1.336,0.174 0.562,0.117 1.002,0.174 1.318,0.174 0.451,0 0.86,-0.18 1.225,-0.545 0.363,-0.363 0.545,-0.813 0.545,-1.348 0,-0.905 -0.494,-1.598 -1.483,-2.078 -0.986,-0.48 -2.407,-0.72 -4.257,-0.72 -1.758,0 -3.088,0.295 -3.993,0.886 -0.906,0.588 -1.5,1.405 -1.78,2.447 -0.281,1.043 -0.422,2.435 -0.422,4.178 l 0,10.781 -0.741,0 c -0.809,0 -1.426,0.191 -1.852,0.576 -0.425,0.384 -0.637,0.871 -0.637,1.461 0,0.589 0.222,1.073 0.669,1.45 C -1.499,-0.189 -0.851,0 0,0 Z" /></g><g
           id="g68"
           transform="translate(883.0488,308.7832)"><path
             style="fill:#0ab9c1;fill-opacity:1;stroke:#0ab9c1;stroke-width:1.90701461;stroke-linecap:butt;stroke-linejoin:miter;stroke-miterlimit:10;stroke-dasharray:none;stroke-opacity:1"
             id="path70"
             d="m 0,0 c -0.824,-0.302 -2.021,-0.621 -3.592,-0.957 -1.57,-0.336 -2.658,-0.583 -3.26,-0.741 -0.605,-0.158 -1.181,-0.466 -1.728,-0.925 -0.549,-0.46 -0.824,-1.101 -0.824,-1.924 0,-0.85 0.322,-1.574 0.966,-2.171 0.645,-0.596 1.489,-0.896 2.532,-0.896 1.111,0 2.136,0.245 3.076,0.731 0.939,0.487 1.629,1.114 2.068,1.883 C -0.254,-4.15 0,-2.75 0,-0.803 L 0,0 Z m 0.369,-8.127 c -1.357,-1.057 -2.672,-1.849 -3.939,-2.377 -1.27,-0.527 -2.694,-0.792 -4.27,-0.792 -1.441,0 -2.705,0.285 -3.797,0.854 -1.09,0.569 -1.929,1.34 -2.519,2.315 -0.59,0.973 -0.885,2.029 -0.885,3.167 0,1.537 0.486,2.848 1.461,3.931 0.972,1.083 2.31,1.811 4.012,2.181 0.355,0.082 1.24,0.268 2.654,0.556 1.412,0.288 2.623,0.552 3.631,0.792 1.008,0.239 2.101,0.531 3.283,0.874 -0.07,1.481 -0.367,2.569 -0.896,3.261 -0.528,0.693 -1.622,1.039 -3.282,1.039 -1.426,0 -2.5,-0.199 -3.221,-0.596 C -8.117,6.68 -8.734,6.083 -9.25,5.288 -9.764,4.491 -10.127,3.968 -10.34,3.714 -10.553,3.46 -11.008,3.333 -11.709,3.333 c -0.631,0 -1.176,0.202 -1.635,0.607 -0.461,0.405 -0.689,0.922 -0.689,1.554 0,0.987 0.349,1.947 1.049,2.88 0.699,0.932 1.791,1.701 3.271,2.304 1.483,0.604 3.326,0.906 5.535,0.906 2.469,0 4.41,-0.292 5.823,-0.875 C 3.059,10.127 4.057,9.204 4.639,7.942 5.223,6.68 5.514,5.006 5.514,2.922 5.514,1.605 5.51,0.487 5.504,-0.432 5.496,-1.352 5.486,-2.373 5.473,-3.499 c 0,-1.055 0.173,-2.156 0.523,-3.301 0.352,-1.146 0.525,-1.883 0.525,-2.212 0,-0.576 -0.271,-1.1 -0.812,-1.573 -0.543,-0.475 -1.156,-0.711 -1.842,-0.711 -0.576,0 -1.144,0.271 -1.707,0.813 C 1.598,-9.942 1,-9.157 0.369,-8.127 Z" /></g><g
           id="g72"
           transform="translate(894.2617,300.9033)"><path
             style="fill:#0ab9c1;fill-opacity:1;stroke:#0ab9c1;stroke-width:1.90701461;stroke-linecap:butt;stroke-linejoin:miter;stroke-miterlimit:10;stroke-dasharray:none;stroke-opacity:1"
             id="path74"
             d="m 0,0 0,24.361 c 0,1.124 0.25,1.975 0.752,2.551 0.5,0.576 1.176,0.864 2.025,0.864 0.852,0 1.537,-0.284 2.059,-0.853 0.519,-0.569 0.781,-1.424 0.781,-2.562 L 5.617,0 c 0,-1.14 -0.263,-1.993 -0.793,-2.563 -0.527,-0.568 -1.209,-0.853 -2.047,-0.853 -0.822,0 -1.492,0.295 -2.006,0.885 C 0.258,-1.942 0,-1.098 0,0 Z" /></g><g
           id="g76"
           transform="translate(923.7676,304.8325)"><path
             style="fill:#0ab9c1;fill-opacity:1;stroke:#0ab9c1;stroke-width:1.90701461;stroke-linecap:butt;stroke-linejoin:miter;stroke-miterlimit:10;stroke-dasharray:none;stroke-opacity:1"
             id="path78"
             d="m 0,0 c 0,-1.55 -0.377,-2.877 -1.133,-3.981 -0.754,-1.104 -1.869,-1.941 -3.344,-2.511 -1.475,-0.569 -3.267,-0.853 -5.378,-0.853 -2.018,0 -3.747,0.308 -5.186,0.926 -1.441,0.617 -2.504,1.388 -3.189,2.314 -0.686,0.927 -1.03,1.855 -1.03,2.788 0,0.617 0.221,1.146 0.658,1.585 0.44,0.439 0.997,0.658 1.668,0.658 0.59,0 1.041,-0.144 1.357,-0.432 0.315,-0.288 0.618,-0.694 0.907,-1.215 0.574,-1 1.264,-1.748 2.066,-2.241 0.803,-0.495 1.897,-0.742 3.284,-0.742 1.123,0 2.047,0.25 2.765,0.751 0.721,0.501 1.082,1.074 1.082,1.719 0,0.987 -0.375,1.707 -1.123,2.16 -0.746,0.452 -1.978,0.885 -3.693,1.296 -1.934,0.481 -3.508,0.985 -4.721,1.512 -1.215,0.528 -2.185,1.225 -2.912,2.089 -0.726,0.864 -1.09,1.927 -1.09,3.189 0,1.125 0.336,2.187 1.008,3.19 0.672,1.001 1.662,1.8 2.973,2.397 1.31,0.596 2.89,0.895 4.742,0.895 1.455,0 2.762,-0.152 3.92,-0.453 1.16,-0.302 2.126,-0.707 2.902,-1.214 0.774,-0.508 1.363,-1.07 1.77,-1.687 0.404,-0.618 0.605,-1.222 0.605,-1.81 0,-0.646 -0.215,-1.173 -0.646,-1.585 -0.434,-0.412 -1.047,-0.618 -1.842,-0.618 -0.576,0 -1.066,0.165 -1.473,0.495 -0.404,0.329 -0.867,0.823 -1.388,1.481 -0.424,0.547 -0.927,0.987 -1.502,1.316 -0.577,0.329 -1.358,0.495 -2.346,0.495 -1.014,0 -1.857,-0.216 -2.529,-0.649 -0.675,-0.432 -1.01,-0.971 -1.01,-1.615 0,-0.59 0.248,-1.074 0.742,-1.451 0.494,-0.377 1.158,-0.689 1.996,-0.936 0.836,-0.247 1.988,-0.549 3.455,-0.905 1.742,-0.425 3.166,-0.934 4.27,-1.523 C -2.26,4.246 -1.424,3.549 -0.854,2.748 -0.285,1.944 0,1.029 0,0 Z" /></g><g
           id="g80"
           transform="translate(947.3594,322.939)"><path
             style="fill:#fac731;fill-opacity:1;stroke:#fac731;stroke-width:1.90701461;stroke-linecap:butt;stroke-linejoin:miter;stroke-miterlimit:10;stroke-dasharray:none;stroke-opacity:1"
             id="path82"
             d="M 0,0 C -0.781,0 -1.451,0.239 -2.006,0.72 -2.563,1.2 -2.84,1.879 -2.84,2.757 c 0,0.796 0.285,1.451 0.854,1.966 0.57,0.514 1.232,0.771 1.986,0.771 0.727,0 1.371,-0.234 1.934,-0.7 C 2.496,4.327 2.777,3.649 2.777,2.757 2.777,1.893 2.504,1.217 1.955,0.73 1.406,0.243 0.754,0 0,0 Z" /></g><g
           id="g84"
           transform="translate(950.1367,317.1367)"><path
             style="fill:#0ab9c1;fill-opacity:1;stroke:#0ab9c1;stroke-width:1.90701461;stroke-linecap:butt;stroke-linejoin:miter;stroke-miterlimit:10;stroke-dasharray:none;stroke-opacity:1"
             id="path86"
             d="m 0,0 0,-16.233 c 0,-1.125 -0.268,-1.976 -0.803,-2.553 -0.535,-0.576 -1.213,-0.863 -2.037,-0.863 -0.822,0 -1.49,0.295 -2.006,0.885 -0.513,0.589 -0.771,1.433 -0.771,2.531 l 0,16.069 c 0,1.11 0.258,1.947 0.771,2.51 0.516,0.562 1.184,0.843 2.006,0.843 0.824,0 1.502,-0.281 2.037,-0.843 C -0.268,1.783 0,1.001 0,0 Z" /></g><g
           id="g88"
           transform="translate(975.7949,305.0806)"><path
             style="fill:#fac731;fill-opacity:1;stroke:#fac731;stroke-width:1.90701461;stroke-linecap:butt;stroke-linejoin:miter;stroke-miterlimit:10;stroke-dasharray:none;stroke-opacity:1"
             id="path90"
             d="M 0,0 C 0.85,0.973 1.479,2.125 1.883,3.456 2.287,4.787 2.49,6.33 2.49,8.085 c 0,2.208 -0.357,4.123 -1.07,5.741 -0.713,1.617 -1.732,2.841 -3.057,3.673 -1.322,0.829 -2.842,1.244 -4.556,1.244 -1.221,0 -2.35,-0.23 -3.385,-0.689 -1.035,-0.46 -1.928,-1.129 -2.674,-2.006 -0.748,-0.878 -1.338,-2 -1.769,-3.364 -0.434,-1.366 -0.649,-2.898 -0.649,-4.599 0,-3.47 0.809,-6.142 2.428,-8.015 1.617,-1.871 3.662,-2.808 6.131,-2.808 1.015,0 2.058,0.214 3.127,0.639 -0.645,0.479 -1.45,0.96 -2.416,1.439 -0.967,0.481 -1.629,0.85 -1.987,1.111 -0.357,0.261 -0.535,0.632 -0.535,1.111 0,0.412 0.172,0.775 0.516,1.092 0.342,0.314 0.719,0.472 1.131,0.472 C -5.027,3.126 -2.936,2.084 0,0 Z m 4.795,-3.334 c 0.891,-0.604 1.865,-1.19 2.922,-1.759 1.054,-0.57 1.754,-1.023 2.097,-1.359 0.344,-0.337 0.514,-0.813 0.514,-1.429 0,-0.439 -0.201,-0.879 -0.605,-1.317 -0.407,-0.44 -0.897,-0.659 -1.473,-0.659 -0.465,0 -1.031,0.151 -1.697,0.453 -0.664,0.302 -1.449,0.74 -2.346,1.316 -0.898,0.576 -1.883,1.248 -2.951,2.016 -1.99,-1.013 -4.432,-1.521 -7.326,-1.521 -2.346,0 -4.448,0.374 -6.307,1.12 -1.857,0.748 -3.418,1.825 -4.68,3.232 -1.263,1.406 -2.214,3.075 -2.849,5.01 -0.639,1.934 -0.957,4.039 -0.957,6.316 0,2.317 0.332,4.445 0.998,6.378 0.664,1.935 1.629,3.58 2.89,4.939 1.262,1.358 2.799,2.397 4.61,3.117 1.81,0.72 3.867,1.08 6.172,1.08 3.127,0 5.812,-0.635 8.054,-1.904 2.243,-1.268 3.942,-3.071 5.094,-5.411 1.152,-2.338 1.729,-5.085 1.729,-8.241 0,-4.787 -1.297,-8.579 -3.889,-11.377 z" /></g></g></g></g><rect
     y="145.75757"
     x="1040.9091"
     height="368.18182"
     width="427.27274"
     id="rect4197"
     style="opacity:0.00000001;fill:#ffffff;fill-opacity:1;fill-rule:evenodd;stroke:#fac731;stroke-width:2.70000005;stroke-linejoin:round;stroke-miterlimit:9.39999962;stroke-dasharray:none;stroke-opacity:1" /><rect
     y="297.27274"
     x="804.54547"
     height="16.666666"
     width="237.87878"
     id="rect4199"
     style="opacity:0;fill:#ffffff;fill-opacity:1;fill-rule:evenodd;stroke:#fac731;stroke-width:2.70000005;stroke-linejoin:round;stroke-miterlimit:9.39999962;stroke-dasharray:none;stroke-opacity:1" /><path
     id="rect4201"
     d="M 563.63672 212.42383 L 563.63672 501.81836 L 709.64648 501.81836 C 707.26486 500.2922 704.91034 498.72257 702.47656 497.28125 C 699.65885 495.61256 696.7505 494.1008 693.89258 492.50195 C 685.24815 487.66583 687.48863 488.93011 679.80078 484.45898 C 677.03148 483.35629 674.92766 481.19908 672.41797 479.69336 C 672.23493 479.58355 672.03927 479.4983 671.84961 479.40039 L 671.02148 478.87891 C 670.17021 478.79737 669.66079 478.03025 669.43164 477.17383 C 669.27147 476.96088 669.22899 476.7901 669.32422 476.67188 C 669.24074 476.06113 669.29392 475.46264 669.47266 475.08203 C 669.83579 474.3088 670.80776 473.95274 671.61719 473.67969 C 672.59827 473.34873 673.4107 474.2674 674.02734 474.75391 C 674.19109 474.8831 674.29037 474.98711 674.40039 475.0957 C 674.57178 475.19437 674.73348 475.28679 675.19727 475.56836 C 677.60737 477.03156 679.62314 479.10955 682.30078 480.16016 C 690.08909 484.69049 687.49826 483.22265 696.3125 488.1582 C 699.25114 489.8037 702.23903 491.36153 705.13672 493.07812 C 707.67785 494.5835 710.12786 496.23996 712.62305 497.82031 C 714.19996 498.85158 715.73953 499.94185 717.35352 500.91406 C 717.91176 501.25032 718.49812 501.53534 719.08594 501.81836 L 1243.9395 501.81836 L 1243.9395 212.42383 L 563.63672 212.42383 z M 669.32422 476.67188 C 669.34721 476.84011 669.38729 477.00807 669.43164 477.17383 C 669.56032 477.34491 669.74916 477.53854 670.08594 477.78711 C 670.41119 478.02717 670.68843 478.35261 671.0625 478.50586 C 672.09523 478.92894 673.51262 478.38064 673.94531 477.25781 C 674.07126 476.93098 674.06904 476.5773 674.01953 476.2207 C 672.60435 476.44803 669.77031 476.11807 669.32422 476.67188 z M 614.02344 451.14648 C 614.56644 451.16 615.12401 451.22568 615.65234 451.1875 C 627.73886 451.64449 640.10312 450.40925 651.81055 454.24609 C 655.71203 455.52471 659.36157 457.47398 663.13672 459.08789 L 669.32031 462.83398 C 671.77655 464.32178 671.90288 466.38702 670.75781 467.3457 C 671.99209 467.33619 673.22791 467.3353 674.46094 467.32617 C 679.38471 467.28967 679.38467 472.25896 674.46094 472.30078 C 660.91844 472.41581 647.29006 472.64145 634.00391 469.5293 C 626.33143 467.7321 623.05342 466.057 616.16602 463.15039 C 614.65134 462.35319 613.06082 461.68353 611.62109 460.75781 C 610.82299 460.24464 607.7657 457.92518 608.18359 456.28516 C 608.71349 454.20553 609.56875 453.33785 610.67188 453.11328 C 611.19253 452.4402 611.74517 451.80058 612.48242 451.41602 C 612.95208 451.17104 613.48043 451.13297 614.02344 451.14648 z M 612.56055 454.91797 C 612.51578 454.91976 612.49555 454.93651 612.52344 454.97266 C 612.65824 455.14737 612.81021 455.31093 612.95898 455.47656 C 612.98278 455.37615 613.01651 455.27801 613.0332 455.17578 C 613.05525 455.04059 612.69484 454.91259 612.56055 454.91797 z M 615.85938 456.15625 C 615.73634 456.15482 615.59358 456.18356 615.45117 456.21289 C 615.42898 456.47807 615.31711 456.75084 615.0957 457.0332 C 616.08504 457.57023 617.11288 458.04217 618.10742 458.57031 C 624.49001 461.28642 627.74774 462.94391 634.83789 464.625 C 645.49604 467.15208 656.38682 467.40608 667.26953 467.36523 C 667.0913 467.27738 666.91335 467.1919 666.72852 467.07812 L 661.16406 463.6543 C 657.68661 462.13676 654.32984 460.30741 650.73242 459.10156 C 639.46203 455.32372 627.50774 456.65864 615.85938 456.15625 z "
     style="opacity:0;fill:#ffffff;fill-opacity:1;fill-rule:evenodd;stroke:#fac731;stroke-width:2.70000005;stroke-linejoin:round;stroke-miterlimit:9.39999962;stroke-dasharray:none;stroke-opacity:1" /><path
     id="rect4222"
     d="M 568.18164 221.51562 L 568.18164 548.78711 L 1089.3945 548.78711 L 1089.3945 221.51562 L 568.18164 221.51562 z M 614.02344 451.14648 C 614.56644 451.16 615.12401 451.22568 615.65234 451.1875 C 627.73886 451.64449 640.10312 450.40925 651.81055 454.24609 C 655.71203 455.52471 659.36157 457.47398 663.13672 459.08789 L 669.32031 462.83398 C 671.77655 464.32178 671.90288 466.38702 670.75781 467.3457 C 671.99209 467.33619 673.22791 467.3353 674.46094 467.32617 C 679.38471 467.28967 679.38467 472.25896 674.46094 472.30078 C 660.91844 472.41581 647.29006 472.64145 634.00391 469.5293 C 626.33143 467.7321 623.05342 466.057 616.16602 463.15039 C 614.65134 462.35319 613.06082 461.68353 611.62109 460.75781 C 610.82299 460.24464 607.7657 457.92518 608.18359 456.28516 C 608.71349 454.20553 609.56875 453.33785 610.67188 453.11328 C 611.19253 452.4402 611.74517 451.80058 612.48242 451.41602 C 612.95208 451.17104 613.48043 451.13297 614.02344 451.14648 z M 612.56055 454.91797 C 612.51578 454.91976 612.49555 454.93651 612.52344 454.97266 C 612.65824 455.14737 612.81021 455.31093 612.95898 455.47656 C 612.98278 455.37615 613.01651 455.27801 613.0332 455.17578 C 613.05525 455.04059 612.69484 454.91259 612.56055 454.91797 z M 615.85938 456.15625 C 615.73634 456.15482 615.59358 456.18356 615.45117 456.21289 C 615.42898 456.47807 615.31711 456.75084 615.0957 457.0332 C 616.08504 457.57023 617.11288 458.04217 618.10742 458.57031 C 624.49001 461.28642 627.74774 462.94391 634.83789 464.625 C 645.49604 467.15208 656.38682 467.40608 667.26953 467.36523 C 667.0913 467.27738 666.91335 467.1919 666.72852 467.07812 L 661.16406 463.6543 C 657.68661 462.13676 654.32984 460.30741 650.73242 459.10156 C 639.46203 455.32372 627.50774 456.65864 615.85938 456.15625 z M 671.97656 473.61133 C 672.79786 473.57219 673.48778 474.32821 674.02734 474.75391 C 674.19109 474.8831 674.29037 474.98711 674.40039 475.0957 C 674.57178 475.19437 674.73348 475.28679 675.19727 475.56836 C 677.60737 477.03156 679.62314 479.10955 682.30078 480.16016 C 690.08909 484.69049 687.49826 483.22265 696.3125 488.1582 C 699.25114 489.8037 702.23903 491.36153 705.13672 493.07812 C 707.67785 494.5835 710.12786 496.23996 712.62305 497.82031 C 714.19996 498.85158 715.73953 499.94185 717.35352 500.91406 C 718.20584 501.42746 719.12552 501.81907 720.01172 502.27148 C 724.3972 504.51032 722.85835 509.16237 718.43945 506.99023 C 717.33609 506.44786 716.18953 505.9851 715.12891 505.36328 C 713.34259 504.31598 711.65722 503.10484 709.91211 501.99023 C 707.43945 500.41094 705.00105 498.77629 702.47656 497.28125 C 699.65885 495.61256 696.7505 494.1008 693.89258 492.50195 C 685.24815 487.66583 687.48863 488.93011 679.80078 484.45898 C 677.03148 483.35629 674.92766 481.19908 672.41797 479.69336 C 672.23493 479.58355 672.03927 479.4983 671.84961 479.40039 L 671.02148 478.87891 C 670.17021 478.79737 669.66079 478.03025 669.43164 477.17383 C 669.27147 476.96088 669.22899 476.7901 669.32422 476.67188 C 669.24074 476.06113 669.29392 475.46264 669.47266 475.08203 C 669.83579 474.3088 670.80776 473.95274 671.61719 473.67969 C 671.73982 473.63832 671.85923 473.61692 671.97656 473.61133 z M 669.32422 476.67188 C 669.34721 476.84011 669.38729 477.00807 669.43164 477.17383 C 669.56032 477.34491 669.74916 477.53854 670.08594 477.78711 C 670.41119 478.02717 670.68843 478.35261 671.0625 478.50586 C 672.09523 478.92894 673.51262 478.38064 673.94531 477.25781 C 674.07126 476.93098 674.06904 476.5773 674.01953 476.2207 C 672.60435 476.44803 669.77031 476.11807 669.32422 476.67188 z "
     style="opacity:0;fill:#ffffff;fill-opacity:1;fill-rule:evenodd;stroke:#fac731;stroke-width:2.70000005;stroke-linejoin:round;stroke-miterlimit:9.39999962;stroke-dasharray:none;stroke-opacity:1" /><rect
     y="429.09091"
     x="1089.3939"
     height="1.5151515"
     width="110.60606"
     id="rect4224"
     style="opacity:0;fill:#ffffff;fill-opacity:1;fill-rule:evenodd;stroke:#fac731;stroke-width:2.70000005;stroke-linejoin:round;stroke-miterlimit:9.39999962;stroke-dasharray:none;stroke-opacity:1" /><path
     id="rect4226"
     d="M 557.57617 220 L 557.57617 500.30273 L 707.29688 500.30273 C 705.70405 499.27206 704.10866 498.2478 702.47656 497.28125 C 699.65885 495.61256 696.7505 494.1008 693.89258 492.50195 C 685.24815 487.66583 687.48863 488.93011 679.80078 484.45898 C 677.03148 483.35629 674.92766 481.19908 672.41797 479.69336 C 672.23493 479.58355 672.03927 479.4983 671.84961 479.40039 L 671.02148 478.87891 C 670.17021 478.79737 669.66079 478.03025 669.43164 477.17383 C 669.27147 476.96088 669.22899 476.7901 669.32422 476.67188 C 669.24074 476.06113 669.29392 475.46264 669.47266 475.08203 C 669.83579 474.3088 670.80776 473.95274 671.61719 473.67969 C 672.59827 473.34873 673.4107 474.2674 674.02734 474.75391 C 674.19109 474.8831 674.29037 474.98711 674.40039 475.0957 C 674.57178 475.19437 674.73348 475.28679 675.19727 475.56836 C 677.60737 477.03156 679.62314 479.10955 682.30078 480.16016 C 690.08909 484.69049 687.49826 483.22265 696.3125 488.1582 C 699.25114 489.8037 702.23903 491.36153 705.13672 493.07812 C 707.67785 494.5835 710.12786 496.23996 712.62305 497.82031 C 713.88403 498.64497 715.12995 499.49314 716.40039 500.30273 L 1243.9395 500.30273 L 1243.9395 220 L 557.57617 220 z M 669.32422 476.67188 C 669.34721 476.84011 669.38729 477.00807 669.43164 477.17383 C 669.56032 477.34491 669.74916 477.53854 670.08594 477.78711 C 670.41119 478.02717 670.68843 478.35261 671.0625 478.50586 C 672.09523 478.92894 673.51262 478.38064 673.94531 477.25781 C 674.07126 476.93098 674.06904 476.5773 674.01953 476.2207 C 672.60435 476.44803 669.77031 476.11807 669.32422 476.67188 z M 614.02344 451.14648 C 614.56644 451.16 615.12401 451.22568 615.65234 451.1875 C 627.73886 451.64449 640.10312 450.40925 651.81055 454.24609 C 655.71203 455.52471 659.36157 457.47398 663.13672 459.08789 L 669.32031 462.83398 C 671.77655 464.32178 671.90288 466.38702 670.75781 467.3457 C 671.99209 467.33619 673.22791 467.3353 674.46094 467.32617 C 679.38471 467.28967 679.38467 472.25896 674.46094 472.30078 C 660.91844 472.41581 647.29006 472.64145 634.00391 469.5293 C 626.33143 467.7321 623.05342 466.057 616.16602 463.15039 C 614.65134 462.35319 613.06082 461.68353 611.62109 460.75781 C 610.82299 460.24464 607.7657 457.92518 608.18359 456.28516 C 608.71349 454.20553 609.56875 453.33785 610.67188 453.11328 C 611.19253 452.4402 611.74517 451.80058 612.48242 451.41602 C 612.95208 451.17104 613.48043 451.13297 614.02344 451.14648 z M 612.56055 454.91797 C 612.51578 454.91976 612.49555 454.93651 612.52344 454.97266 C 612.65824 455.14737 612.81021 455.31093 612.95898 455.47656 C 612.98278 455.37615 613.01651 455.27801 613.0332 455.17578 C 613.05525 455.04059 612.69484 454.91259 612.56055 454.91797 z M 615.85938 456.15625 C 615.73634 456.15482 615.59358 456.18356 615.45117 456.21289 C 615.42898 456.47807 615.31711 456.75084 615.0957 457.0332 C 616.08504 457.57023 617.11288 458.04217 618.10742 458.57031 C 624.49001 461.28642 627.74774 462.94391 634.83789 464.625 C 645.49604 467.15208 656.38682 467.40608 667.26953 467.36523 C 667.0913 467.27738 666.91335 467.1919 666.72852 467.07812 L 661.16406 463.6543 C 657.68661 462.13676 654.32984 460.30741 650.73242 459.10156 C 639.46203 455.32372 627.50774 456.65864 615.85938 456.15625 z "
     style="opacity:0;fill:#ffffff;fill-opacity:1;fill-rule:evenodd;stroke:#fac731;stroke-width:2.70000005;stroke-linejoin:round;stroke-miterlimit:9.39999962;stroke-dasharray:none;stroke-opacity:1" /></svg>